G04 EAGLE Gerber RS-274X export*
G75*
%MOMM*%
%FSLAX34Y34*%
%LPD*%
%INSoldermask Top*%
%IPPOS*%
%AMOC8*
5,1,8,0,0,1.08239X$1,22.5*%
G01*
%ADD10C,1.524000*%
%ADD11C,1.727200*%
%ADD12P,1.649562X8X292.500000*%
%ADD13P,1.649562X8X22.500000*%
%ADD14P,1.649562X8X202.500000*%
%ADD15P,1.649562X8X112.500000*%
%ADD16P,1.951982X8X292.500000*%
%ADD17C,0.959600*%
%ADD18C,1.203200*%


D10*
X101600Y221996D02*
X101600Y235204D01*
X127000Y235204D02*
X127000Y221996D01*
X254000Y221996D02*
X254000Y235204D01*
X279400Y235204D02*
X279400Y221996D01*
X152400Y221996D02*
X152400Y235204D01*
X177800Y235204D02*
X177800Y221996D01*
X228600Y221996D02*
X228600Y235204D01*
X203200Y235204D02*
X203200Y221996D01*
X279400Y298196D02*
X279400Y311404D01*
X254000Y311404D02*
X254000Y298196D01*
X228600Y298196D02*
X228600Y311404D01*
X203200Y311404D02*
X203200Y298196D01*
X177800Y298196D02*
X177800Y311404D01*
X152400Y311404D02*
X152400Y298196D01*
X127000Y298196D02*
X127000Y311404D01*
X101600Y311404D02*
X101600Y298196D01*
X368300Y235204D02*
X368300Y221996D01*
X393700Y221996D02*
X393700Y235204D01*
X520700Y235204D02*
X520700Y221996D01*
X546100Y221996D02*
X546100Y235204D01*
X419100Y235204D02*
X419100Y221996D01*
X444500Y221996D02*
X444500Y235204D01*
X495300Y235204D02*
X495300Y221996D01*
X469900Y221996D02*
X469900Y235204D01*
X546100Y298196D02*
X546100Y311404D01*
X520700Y311404D02*
X520700Y298196D01*
X495300Y298196D02*
X495300Y311404D01*
X469900Y311404D02*
X469900Y298196D01*
X444500Y298196D02*
X444500Y311404D01*
X419100Y311404D02*
X419100Y298196D01*
X393700Y298196D02*
X393700Y311404D01*
X368300Y311404D02*
X368300Y298196D01*
X635000Y235204D02*
X635000Y221996D01*
X660400Y221996D02*
X660400Y235204D01*
X787400Y235204D02*
X787400Y221996D01*
X812800Y221996D02*
X812800Y235204D01*
X685800Y235204D02*
X685800Y221996D01*
X711200Y221996D02*
X711200Y235204D01*
X762000Y235204D02*
X762000Y221996D01*
X736600Y221996D02*
X736600Y235204D01*
X812800Y298196D02*
X812800Y311404D01*
X787400Y311404D02*
X787400Y298196D01*
X762000Y298196D02*
X762000Y311404D01*
X736600Y311404D02*
X736600Y298196D01*
X711200Y298196D02*
X711200Y311404D01*
X685800Y311404D02*
X685800Y298196D01*
X660400Y298196D02*
X660400Y311404D01*
X635000Y311404D02*
X635000Y298196D01*
X901700Y235204D02*
X901700Y221996D01*
X927100Y221996D02*
X927100Y235204D01*
X1054100Y235204D02*
X1054100Y221996D01*
X1079500Y221996D02*
X1079500Y235204D01*
X952500Y235204D02*
X952500Y221996D01*
X977900Y221996D02*
X977900Y235204D01*
X1028700Y235204D02*
X1028700Y221996D01*
X1003300Y221996D02*
X1003300Y235204D01*
X1079500Y298196D02*
X1079500Y311404D01*
X1054100Y311404D02*
X1054100Y298196D01*
X1028700Y298196D02*
X1028700Y311404D01*
X1003300Y311404D02*
X1003300Y298196D01*
X977900Y298196D02*
X977900Y311404D01*
X952500Y311404D02*
X952500Y298196D01*
X927100Y298196D02*
X927100Y311404D01*
X901700Y311404D02*
X901700Y298196D01*
X101600Y742696D02*
X101600Y755904D01*
X127000Y755904D02*
X127000Y742696D01*
X254000Y742696D02*
X254000Y755904D01*
X279400Y755904D02*
X279400Y742696D01*
X152400Y742696D02*
X152400Y755904D01*
X177800Y755904D02*
X177800Y742696D01*
X228600Y742696D02*
X228600Y755904D01*
X203200Y755904D02*
X203200Y742696D01*
X279400Y818896D02*
X279400Y832104D01*
X254000Y832104D02*
X254000Y818896D01*
X228600Y818896D02*
X228600Y832104D01*
X203200Y832104D02*
X203200Y818896D01*
X177800Y818896D02*
X177800Y832104D01*
X152400Y832104D02*
X152400Y818896D01*
X127000Y818896D02*
X127000Y832104D01*
X101600Y832104D02*
X101600Y818896D01*
X368300Y755904D02*
X368300Y742696D01*
X393700Y742696D02*
X393700Y755904D01*
X520700Y755904D02*
X520700Y742696D01*
X546100Y742696D02*
X546100Y755904D01*
X419100Y755904D02*
X419100Y742696D01*
X444500Y742696D02*
X444500Y755904D01*
X495300Y755904D02*
X495300Y742696D01*
X469900Y742696D02*
X469900Y755904D01*
X546100Y818896D02*
X546100Y832104D01*
X520700Y832104D02*
X520700Y818896D01*
X495300Y818896D02*
X495300Y832104D01*
X469900Y832104D02*
X469900Y818896D01*
X444500Y818896D02*
X444500Y832104D01*
X419100Y832104D02*
X419100Y818896D01*
X393700Y818896D02*
X393700Y832104D01*
X368300Y832104D02*
X368300Y818896D01*
X635000Y755904D02*
X635000Y742696D01*
X660400Y742696D02*
X660400Y755904D01*
X787400Y755904D02*
X787400Y742696D01*
X812800Y742696D02*
X812800Y755904D01*
X685800Y755904D02*
X685800Y742696D01*
X711200Y742696D02*
X711200Y755904D01*
X762000Y755904D02*
X762000Y742696D01*
X736600Y742696D02*
X736600Y755904D01*
X812800Y818896D02*
X812800Y832104D01*
X787400Y832104D02*
X787400Y818896D01*
X762000Y818896D02*
X762000Y832104D01*
X736600Y832104D02*
X736600Y818896D01*
X711200Y818896D02*
X711200Y832104D01*
X685800Y832104D02*
X685800Y818896D01*
X660400Y818896D02*
X660400Y832104D01*
X635000Y832104D02*
X635000Y818896D01*
X901700Y755904D02*
X901700Y742696D01*
X927100Y742696D02*
X927100Y755904D01*
X1054100Y755904D02*
X1054100Y742696D01*
X1079500Y742696D02*
X1079500Y755904D01*
X952500Y755904D02*
X952500Y742696D01*
X977900Y742696D02*
X977900Y755904D01*
X1028700Y755904D02*
X1028700Y742696D01*
X1003300Y742696D02*
X1003300Y755904D01*
X1079500Y818896D02*
X1079500Y832104D01*
X1054100Y832104D02*
X1054100Y818896D01*
X1028700Y818896D02*
X1028700Y832104D01*
X1003300Y832104D02*
X1003300Y818896D01*
X977900Y818896D02*
X977900Y832104D01*
X952500Y832104D02*
X952500Y818896D01*
X927100Y818896D02*
X927100Y832104D01*
X901700Y832104D02*
X901700Y818896D01*
X1155700Y755904D02*
X1155700Y742696D01*
X1181100Y742696D02*
X1181100Y755904D01*
X1308100Y755904D02*
X1308100Y742696D01*
X1333500Y742696D02*
X1333500Y755904D01*
X1206500Y755904D02*
X1206500Y742696D01*
X1231900Y742696D02*
X1231900Y755904D01*
X1282700Y755904D02*
X1282700Y742696D01*
X1257300Y742696D02*
X1257300Y755904D01*
X1333500Y818896D02*
X1333500Y832104D01*
X1308100Y832104D02*
X1308100Y818896D01*
X1282700Y818896D02*
X1282700Y832104D01*
X1257300Y832104D02*
X1257300Y818896D01*
X1231900Y818896D02*
X1231900Y832104D01*
X1206500Y832104D02*
X1206500Y818896D01*
X1181100Y818896D02*
X1181100Y832104D01*
X1155700Y832104D02*
X1155700Y818896D01*
D11*
X76200Y58420D02*
X76200Y43180D01*
X101600Y43180D02*
X101600Y58420D01*
X127000Y58420D02*
X127000Y43180D01*
X152400Y43180D02*
X152400Y58420D01*
X177800Y58420D02*
X177800Y43180D01*
X203200Y43180D02*
X203200Y58420D01*
X228600Y58420D02*
X228600Y43180D01*
X254000Y43180D02*
X254000Y58420D01*
X33020Y469900D02*
X17780Y469900D01*
X17780Y444500D02*
X33020Y444500D01*
X33020Y419100D02*
X17780Y419100D01*
X17780Y393700D02*
X33020Y393700D01*
X33020Y368300D02*
X17780Y368300D01*
X17780Y342900D02*
X33020Y342900D01*
X342900Y58420D02*
X342900Y43180D01*
X368300Y43180D02*
X368300Y58420D01*
X393700Y58420D02*
X393700Y43180D01*
X419100Y43180D02*
X419100Y58420D01*
X444500Y58420D02*
X444500Y43180D01*
X469900Y43180D02*
X469900Y58420D01*
X495300Y58420D02*
X495300Y43180D01*
X520700Y43180D02*
X520700Y58420D01*
X609600Y58420D02*
X609600Y43180D01*
X635000Y43180D02*
X635000Y58420D01*
X660400Y58420D02*
X660400Y43180D01*
X685800Y43180D02*
X685800Y58420D01*
X711200Y58420D02*
X711200Y43180D01*
X736600Y43180D02*
X736600Y58420D01*
X762000Y58420D02*
X762000Y43180D01*
X787400Y43180D02*
X787400Y58420D01*
X876300Y58420D02*
X876300Y43180D01*
X901700Y43180D02*
X901700Y58420D01*
X927100Y58420D02*
X927100Y43180D01*
X952500Y43180D02*
X952500Y58420D01*
X977900Y58420D02*
X977900Y43180D01*
X1003300Y43180D02*
X1003300Y58420D01*
X1028700Y58420D02*
X1028700Y43180D01*
X1054100Y43180D02*
X1054100Y58420D01*
X76200Y563880D02*
X76200Y579120D01*
X101600Y579120D02*
X101600Y563880D01*
X127000Y563880D02*
X127000Y579120D01*
X152400Y579120D02*
X152400Y563880D01*
X177800Y563880D02*
X177800Y579120D01*
X203200Y579120D02*
X203200Y563880D01*
X228600Y563880D02*
X228600Y579120D01*
X254000Y579120D02*
X254000Y563880D01*
X342900Y563880D02*
X342900Y579120D01*
X368300Y579120D02*
X368300Y563880D01*
X393700Y563880D02*
X393700Y579120D01*
X419100Y579120D02*
X419100Y563880D01*
X444500Y563880D02*
X444500Y579120D01*
X469900Y579120D02*
X469900Y563880D01*
X495300Y563880D02*
X495300Y579120D01*
X520700Y579120D02*
X520700Y563880D01*
X609600Y563880D02*
X609600Y579120D01*
X635000Y579120D02*
X635000Y563880D01*
X660400Y563880D02*
X660400Y579120D01*
X685800Y579120D02*
X685800Y563880D01*
X711200Y563880D02*
X711200Y579120D01*
X736600Y579120D02*
X736600Y563880D01*
X762000Y563880D02*
X762000Y579120D01*
X787400Y579120D02*
X787400Y563880D01*
X876300Y563880D02*
X876300Y579120D01*
X901700Y579120D02*
X901700Y563880D01*
X927100Y563880D02*
X927100Y579120D01*
X952500Y579120D02*
X952500Y563880D01*
X977900Y563880D02*
X977900Y579120D01*
X1003300Y579120D02*
X1003300Y563880D01*
X1028700Y563880D02*
X1028700Y579120D01*
X1054100Y579120D02*
X1054100Y563880D01*
X1389380Y190500D02*
X1404620Y190500D01*
X1404620Y215900D02*
X1389380Y215900D01*
X1389380Y241300D02*
X1404620Y241300D01*
X1404620Y266700D02*
X1389380Y266700D01*
X1389380Y292100D02*
X1404620Y292100D01*
X1404620Y317500D02*
X1389380Y317500D01*
X1389380Y342900D02*
X1404620Y342900D01*
X1404620Y368300D02*
X1389380Y368300D01*
X1181100Y248920D02*
X1181100Y233680D01*
X1206500Y233680D02*
X1206500Y248920D01*
X1231900Y248920D02*
X1231900Y233680D01*
X1206500Y360680D02*
X1206500Y375920D01*
X1231900Y375920D02*
X1231900Y360680D01*
X1257300Y360680D02*
X1257300Y375920D01*
X1231900Y487680D02*
X1231900Y502920D01*
X1257300Y502920D02*
X1257300Y487680D01*
X1282700Y487680D02*
X1282700Y502920D01*
X1435100Y500380D02*
X1435100Y515620D01*
X1409700Y515620D02*
X1409700Y500380D01*
X1384300Y500380D02*
X1384300Y515620D01*
X1320800Y109220D02*
X1320800Y93980D01*
X1346200Y93980D02*
X1346200Y109220D01*
X1371600Y109220D02*
X1371600Y93980D01*
X1155700Y93980D02*
X1155700Y109220D01*
X1181100Y109220D02*
X1181100Y93980D01*
X1206500Y93980D02*
X1206500Y109220D01*
X1485900Y716280D02*
X1485900Y731520D01*
X1460500Y731520D02*
X1460500Y716280D01*
X1435100Y716280D02*
X1435100Y731520D01*
X1485900Y617220D02*
X1485900Y601980D01*
X1460500Y601980D02*
X1460500Y617220D01*
X1435100Y617220D02*
X1435100Y601980D01*
D12*
X152400Y444500D03*
X152400Y342900D03*
X203200Y190500D03*
X203200Y88900D03*
X1231900Y965200D03*
X1231900Y863600D03*
X1181100Y711200D03*
X1181100Y609600D03*
D13*
X1181100Y190500D03*
X1282700Y190500D03*
D12*
X1206500Y711200D03*
X1206500Y609600D03*
D13*
X1206500Y317500D03*
X1308100Y317500D03*
D12*
X1231900Y711200D03*
X1231900Y609600D03*
D13*
X1231900Y444500D03*
X1333500Y444500D03*
D12*
X1257300Y711200D03*
X1257300Y609600D03*
D14*
X1435100Y558800D03*
X1333500Y558800D03*
D15*
X1181100Y863600D03*
X1181100Y965200D03*
D12*
X228600Y190500D03*
X228600Y88900D03*
D13*
X1320800Y50800D03*
X1422400Y50800D03*
D12*
X1155700Y711200D03*
X1155700Y609600D03*
D13*
X1155700Y50800D03*
X1257300Y50800D03*
D12*
X1282700Y711200D03*
X1282700Y609600D03*
D14*
X1485900Y774700D03*
X1384300Y774700D03*
D12*
X1308100Y711200D03*
X1308100Y609600D03*
D14*
X1485900Y660400D03*
X1384300Y660400D03*
D12*
X203200Y444500D03*
X203200Y342900D03*
X520700Y444500D03*
X520700Y342900D03*
X469900Y444500D03*
X469900Y342900D03*
X254000Y190500D03*
X254000Y88900D03*
X520700Y965200D03*
X520700Y863600D03*
X469900Y965200D03*
X469900Y863600D03*
X787400Y965200D03*
X787400Y863600D03*
X736600Y965200D03*
X736600Y863600D03*
X1054100Y965200D03*
X1054100Y863600D03*
X1003300Y965200D03*
X1003300Y863600D03*
X419100Y444500D03*
X419100Y342900D03*
X495300Y444500D03*
X495300Y342900D03*
X1308100Y965200D03*
X1308100Y863600D03*
X444500Y444500D03*
X444500Y342900D03*
D15*
X393700Y342900D03*
X393700Y444500D03*
D12*
X368300Y190500D03*
X368300Y88900D03*
X393700Y190500D03*
X393700Y88900D03*
X228600Y444500D03*
X228600Y342900D03*
X419100Y190500D03*
X419100Y88900D03*
X444500Y190500D03*
X444500Y88900D03*
X469900Y190500D03*
X469900Y88900D03*
X495300Y190500D03*
X495300Y88900D03*
X520700Y190500D03*
X520700Y88900D03*
X685800Y444500D03*
X685800Y342900D03*
X762000Y444500D03*
X762000Y342900D03*
X1257300Y965200D03*
X1257300Y863600D03*
X711200Y444500D03*
X711200Y342900D03*
D15*
X660400Y342900D03*
X660400Y444500D03*
D12*
X254000Y444500D03*
X254000Y342900D03*
X635000Y190500D03*
X635000Y88900D03*
X660400Y190500D03*
X660400Y88900D03*
X685800Y190500D03*
X685800Y88900D03*
X711200Y190500D03*
X711200Y88900D03*
X736600Y190500D03*
X736600Y88900D03*
X762000Y190500D03*
X762000Y88900D03*
X787400Y190500D03*
X787400Y88900D03*
X952500Y444500D03*
X952500Y342900D03*
X1028700Y444500D03*
X1028700Y342900D03*
X787400Y444500D03*
X787400Y342900D03*
X177800Y444500D03*
X177800Y342900D03*
X977900Y444500D03*
X977900Y342900D03*
D15*
X927100Y342900D03*
X927100Y444500D03*
D12*
X901700Y190500D03*
X901700Y88900D03*
X927100Y190500D03*
X927100Y88900D03*
X952500Y190500D03*
X952500Y88900D03*
X977900Y190500D03*
X977900Y88900D03*
X1003300Y190500D03*
X1003300Y88900D03*
X1028700Y190500D03*
X1028700Y88900D03*
X1054100Y190500D03*
X1054100Y88900D03*
X152400Y965200D03*
X152400Y863600D03*
D15*
X127000Y342900D03*
X127000Y444500D03*
D12*
X228600Y965200D03*
X228600Y863600D03*
X736600Y444500D03*
X736600Y342900D03*
X177800Y965200D03*
X177800Y863600D03*
D15*
X127000Y863600D03*
X127000Y965200D03*
D12*
X101600Y711200D03*
X101600Y609600D03*
X127000Y711200D03*
X127000Y609600D03*
X152400Y711200D03*
X152400Y609600D03*
X177800Y711200D03*
X177800Y609600D03*
X203200Y711200D03*
X203200Y609600D03*
X228600Y711200D03*
X228600Y609600D03*
X101600Y190500D03*
X101600Y88900D03*
X254000Y711200D03*
X254000Y609600D03*
X419100Y965200D03*
X419100Y863600D03*
X495300Y965200D03*
X495300Y863600D03*
X1054100Y444500D03*
X1054100Y342900D03*
X444500Y965200D03*
X444500Y863600D03*
D15*
X393700Y863600D03*
X393700Y965200D03*
D12*
X368300Y711200D03*
X368300Y609600D03*
X393700Y711200D03*
X393700Y609600D03*
X419100Y711200D03*
X419100Y609600D03*
X444500Y711200D03*
X444500Y609600D03*
X127000Y190500D03*
X127000Y88900D03*
X469900Y711200D03*
X469900Y609600D03*
X495300Y711200D03*
X495300Y609600D03*
X520700Y711200D03*
X520700Y609600D03*
X685800Y965200D03*
X685800Y863600D03*
X762000Y965200D03*
X762000Y863600D03*
X1003300Y444500D03*
X1003300Y342900D03*
X711200Y965200D03*
X711200Y863600D03*
D15*
X660400Y863600D03*
X660400Y965200D03*
D12*
X635000Y711200D03*
X635000Y609600D03*
X660400Y711200D03*
X660400Y609600D03*
X152400Y190500D03*
X152400Y88900D03*
X685800Y711200D03*
X685800Y609600D03*
X711200Y711200D03*
X711200Y609600D03*
X736600Y711200D03*
X736600Y609600D03*
X762000Y711200D03*
X762000Y609600D03*
X787400Y711200D03*
X787400Y609600D03*
X952500Y965200D03*
X952500Y863600D03*
X1028700Y965200D03*
X1028700Y863600D03*
X254000Y965200D03*
X254000Y863600D03*
X977900Y965200D03*
X977900Y863600D03*
D15*
X927100Y863600D03*
X927100Y965200D03*
D12*
X177800Y190500D03*
X177800Y88900D03*
X901700Y711200D03*
X901700Y609600D03*
X927100Y711200D03*
X927100Y609600D03*
X952500Y711200D03*
X952500Y609600D03*
X977900Y711200D03*
X977900Y609600D03*
X1003300Y711200D03*
X1003300Y609600D03*
X1028700Y711200D03*
X1028700Y609600D03*
X1054100Y711200D03*
X1054100Y609600D03*
X1206500Y965200D03*
X1206500Y863600D03*
X1282700Y965200D03*
X1282700Y863600D03*
X203200Y965200D03*
X203200Y863600D03*
D16*
X50800Y292100D03*
X50800Y241300D03*
X317500Y292100D03*
X317500Y241300D03*
X584200Y292100D03*
X584200Y241300D03*
X850900Y292100D03*
X850900Y241300D03*
X63500Y812800D03*
X63500Y762000D03*
X317500Y812800D03*
X317500Y762000D03*
X584200Y812800D03*
X584200Y762000D03*
X850900Y850900D03*
X850900Y800100D03*
X1384300Y850900D03*
X1384300Y800100D03*
D17*
X914400Y800100D03*
D18*
X1244600Y939800D03*
X1358900Y711200D03*
X1257300Y584200D03*
X787400Y381000D03*
X1054100Y381000D03*
X254000Y381000D03*
X520700Y381000D03*
X63500Y342900D03*
X254000Y901700D03*
X520700Y901700D03*
X787400Y901700D03*
X1054100Y901700D03*
X1308100Y901700D03*
X1104900Y876300D03*
X1130300Y876300D03*
M02*
