M48
;GenerationSoftware,Autodesk,EAGLE,9.5.1*%
;CreationDate,2020-01-30T14:40:12Z*%
FMAT,2
ICI,OFF
METRIC,TZ,000.000
T3C0.350
T2C0.813
T1C1.016
%
G90
M71
T1
X22860Y57150
X25400Y57150
X34290Y57150
X36830Y57150
X39370Y57150
X41910Y57150
X44450Y57150
X46990Y57150
X49530Y57150
X52070Y57150
X60960Y57150
X63500Y57150
X66040Y57150
X68580Y57150
X71120Y57150
X73660Y57150
X76200Y57150
X78740Y57150
X87630Y57150
X90170Y57150
X92710Y57150
X95250Y57150
X97790Y57150
X100330Y57150
X102870Y57150
X105410Y57150
X139700Y19050
X139700Y21590
X139700Y24130
X139700Y26670
X139700Y29210
X139700Y31750
X139700Y34290
X139700Y36830
X118110Y24130
X120650Y24130
X123190Y24130
X120650Y36830
X123190Y36830
X125730Y36830
X123190Y49530
X125730Y49530
X128270Y49530
X143510Y50800
X140970Y50800
X138430Y50800
X132080Y10160
X134620Y10160
X137160Y10160
X115570Y10160
X118110Y10160
X120650Y10160
X148590Y72390
X146050Y72390
X143510Y72390
X148590Y60960
X146050Y60960
X143510Y60960
X7620Y5080
X10160Y5080
X12700Y5080
X15240Y5080
X17780Y5080
X20320Y5080
X22860Y5080
X25400Y5080
X2540Y46990
X2540Y44450
X2540Y41910
X2540Y39370
X2540Y36830
X2540Y34290
X34290Y5080
X36830Y5080
X39370Y5080
X41910Y5080
X44450Y5080
X46990Y5080
X49530Y5080
X52070Y5080
X60960Y5080
X63500Y5080
X66040Y5080
X68580Y5080
X71120Y5080
X73660Y5080
X76200Y5080
X78740Y5080
X87630Y5080
X90170Y5080
X92710Y5080
X95250Y5080
X97790Y5080
X100330Y5080
X102870Y5080
X105410Y5080
X7620Y57150
X10160Y57150
X12700Y57150
X15240Y57150
X17780Y57150
X20320Y57150
T2
X105410Y22860
X31750Y29210
X31750Y24130
X58420Y29210
X58420Y24130
X85090Y29210
X85090Y24130
X6350Y81280
X6350Y76200
X31750Y81280
X31750Y76200
X58420Y81280
X58420Y76200
X85090Y85090
X85090Y80010
X138430Y85090
X10160Y22860
X12700Y22860
X25400Y22860
X27940Y22860
X15240Y22860
X17780Y22860
X22860Y22860
X20320Y22860
X27940Y30480
X25400Y30480
X22860Y30480
X20320Y30480
X17780Y30480
X15240Y30480
X12700Y30480
X10160Y30480
X36830Y22860
X39370Y22860
X52070Y22860
X54610Y22860
X41910Y22860
X44450Y22860
X49530Y22860
X46990Y22860
X54610Y30480
X52070Y30480
X49530Y30480
X46990Y30480
X44450Y30480
X41910Y30480
X39370Y30480
X36830Y30480
X63500Y22860
X66040Y22860
X78740Y22860
X81280Y22860
X68580Y22860
X71120Y22860
X76200Y22860
X73660Y22860
X81280Y30480
X78740Y30480
X76200Y30480
X73660Y30480
X71120Y30480
X68580Y30480
X66040Y30480
X63500Y30480
X90170Y22860
X92710Y22860
X95250Y74930
X107950Y22860
X95250Y22860
X97790Y22860
X102870Y22860
X100330Y22860
X107950Y30480
X105410Y30480
X102870Y30480
X100330Y30480
X97790Y30480
X95250Y30480
X92710Y30480
X90170Y30480
X10160Y74930
X12700Y74930
X25400Y74930
X27940Y74930
X15240Y74930
X17780Y74930
X22860Y74930
X20320Y74930
X27940Y82550
X25400Y82550
X22860Y82550
X20320Y82550
X17780Y82550
X15240Y82550
X12700Y82550
X10160Y82550
X36830Y74930
X39370Y74930
X52070Y74930
X54610Y74930
X41910Y74930
X44450Y74930
X49530Y74930
X46990Y74930
X54610Y82550
X52070Y82550
X49530Y82550
X46990Y82550
X44450Y82550
X41910Y82550
X39370Y82550
X36830Y82550
X63500Y74930
X66040Y74930
X78740Y74930
X81280Y74930
X68580Y74930
X71120Y74930
X76200Y74930
X73660Y74930
X81280Y82550
X78740Y82550
X76200Y82550
X73660Y82550
X71120Y82550
X68580Y82550
X66040Y82550
X63500Y82550
X90170Y74930
X92710Y74930
X105410Y74930
X107950Y74930
X138430Y80010
X97790Y74930
X102870Y74930
X100330Y74930
X107950Y82550
X105410Y82550
X102870Y82550
X100330Y82550
X97790Y82550
X95250Y82550
X92710Y82550
X90170Y82550
X115570Y74930
X118110Y74930
X130810Y74930
X133350Y74930
X120650Y74930
X123190Y74930
X128270Y74930
X125730Y74930
X133350Y82550
X130810Y82550
X128270Y82550
X125730Y82550
X123190Y82550
X120650Y82550
X118110Y82550
X115570Y82550
X15240Y44450
X15240Y34290
X20320Y19050
X20320Y8890
X123190Y96520
X123190Y86360
X118110Y71120
X118110Y60960
X118110Y19050
X128270Y19050
X120650Y71120
X120650Y60960
X120650Y31750
X130810Y31750
X123190Y71120
X123190Y60960
X123190Y44450
X133350Y44450
X125730Y71120
X125730Y60960
X143510Y55880
X133350Y55880
X118110Y86360
X118110Y96520
X22860Y19050
X22860Y8890
X132080Y5080
X142240Y5080
X115570Y71120
X115570Y60960
X115570Y5080
X125730Y5080
X128270Y71120
X128270Y60960
X148590Y77470
X138430Y77470
X130810Y71120
X130810Y60960
X148590Y66040
X138430Y66040
X20320Y44450
X20320Y34290
X52070Y44450
X52070Y34290
X46990Y44450
X46990Y34290
X25400Y19050
X25400Y8890
X52070Y96520
X52070Y86360
X46990Y96520
X46990Y86360
X78740Y96520
X78740Y86360
X73660Y96520
X73660Y86360
X105410Y96520
X105410Y86360
X100330Y96520
X100330Y86360
X41910Y44450
X41910Y34290
X49530Y44450
X49530Y34290
X130810Y96520
X130810Y86360
X44450Y44450
X44450Y34290
X39370Y34290
X39370Y44450
X36830Y19050
X36830Y8890
X39370Y19050
X39370Y8890
X22860Y44450
X22860Y34290
X41910Y19050
X41910Y8890
X44450Y19050
X44450Y8890
X46990Y19050
X46990Y8890
X49530Y19050
X49530Y8890
X52070Y19050
X52070Y8890
X68580Y44450
X68580Y34290
X76200Y44450
X76200Y34290
X125730Y96520
X125730Y86360
X71120Y44450
X71120Y34290
X66040Y34290
X66040Y44450
X25400Y44450
X25400Y34290
X63500Y19050
X63500Y8890
X66040Y19050
X66040Y8890
X68580Y19050
X68580Y8890
X71120Y19050
X71120Y8890
X73660Y19050
X73660Y8890
X76200Y19050
X76200Y8890
X78740Y19050
X78740Y8890
X95250Y44450
X95250Y34290
X102870Y44450
X102870Y34290
X78740Y44450
X78740Y34290
X17780Y44450
X17780Y34290
X97790Y44450
X97790Y34290
X92710Y34290
X92710Y44450
X90170Y19050
X90170Y8890
X92710Y19050
X92710Y8890
X95250Y19050
X95250Y8890
X97790Y19050
X97790Y8890
X100330Y19050
X100330Y8890
X102870Y19050
X102870Y8890
X105410Y19050
X105410Y8890
X15240Y96520
X15240Y86360
X12700Y34290
X12700Y44450
X22860Y96520
X22860Y86360
X73660Y44450
X73660Y34290
X17780Y96520
X17780Y86360
X12700Y86360
X12700Y96520
X10160Y71120
X10160Y60960
X12700Y71120
X12700Y60960
X15240Y71120
X15240Y60960
X17780Y71120
X17780Y60960
X20320Y71120
X20320Y60960
X22860Y71120
X22860Y60960
X10160Y19050
X10160Y8890
X25400Y71120
X25400Y60960
X41910Y96520
X41910Y86360
X49530Y96520
X49530Y86360
X105410Y44450
X105410Y34290
X44450Y96520
X44450Y86360
X39370Y86360
X39370Y96520
X36830Y71120
X36830Y60960
X39370Y71120
X39370Y60960
X41910Y71120
X41910Y60960
X44450Y71120
X44450Y60960
X12700Y19050
X12700Y8890
X46990Y71120
X46990Y60960
X49530Y71120
X49530Y60960
X52070Y71120
X52070Y60960
X68580Y96520
X68580Y86360
X76200Y96520
X76200Y86360
X100330Y44450
X100330Y34290
X71120Y96520
X71120Y86360
X66040Y86360
X66040Y96520
X63500Y71120
X63500Y60960
X66040Y71120
X66040Y60960
X15240Y19050
X15240Y8890
X68580Y71120
X68580Y60960
X71120Y71120
X71120Y60960
X73660Y71120
X73660Y60960
X76200Y71120
X76200Y60960
X78740Y71120
X78740Y60960
X95250Y96520
X95250Y86360
X102870Y96520
X102870Y86360
X25400Y96520
X25400Y86360
X97790Y96520
X97790Y86360
X92710Y86360
X92710Y96520
X17780Y19050
X17780Y8890
X90170Y71120
X90170Y60960
X92710Y71120
X92710Y60960
X95250Y71120
X95250Y60960
X97790Y71120
X97790Y60960
X100330Y71120
X100330Y60960
X102870Y71120
X102870Y60960
X105410Y71120
X105410Y60960
X120650Y96520
X120650Y86360
X128270Y96520
X128270Y86360
X20320Y96520
X20320Y86360
X5080Y29210
X5080Y24130
T3
X124460Y93980
X135890Y71120
X125730Y58420
X78740Y38100
X105410Y38100
X25400Y38100
X52070Y38100
X6350Y34290
X25400Y90170
X52070Y90170
X78740Y90170
X105410Y90170
X130810Y90170
X110490Y87630
X113030Y87630
X91440Y80010
M30